<svg xmlns="http://www.w3.org/2000/svg" width="14.008" height="14.008" viewBox="0 0 14.008 14.008">
  <path id="Path_8" data-name="Path 8" d="M13.837,13.032l-2.407-2.354h0l-.056-.086a.567.567,0,0,0-.8,0h0a5.682,5.682,0,0,1-7.367.238,5.378,5.378,0,0,1-1.2-7.111A5.656,5.656,0,0,1,9.072,1.64a5.422,5.422,0,0,1,3.022,6.573.546.546,0,0,0,.127.54.575.575,0,0,0,.542.162.562.562,0,0,0,.415-.378h0a6.538,6.538,0,0,0-3.5-7.88,6.832,6.832,0,0,0-8.494,2.2A6.483,6.483,0,0,0,2.135,11.4a6.856,6.856,0,0,0,8.78.361l2.132,2.084a.573.573,0,0,0,.8,0,.549.549,0,0,0,0-.785h0Z" fill="#fff"/>
</svg>
